<svg id="Layer_1" data-name="Layer 1" xmlns="http://www.w3.org/2000/svg" viewBox="0 0 180 180">
  <path d="M90-.13a90,90,0,1,0,90,90A90,90,0,0,0,90-.13ZM91.19,22.4a92.49,92.49,0,0,0,17.86-1.54v2.31c-3.19.93-5.84,3.67-8,8.19a16.34,16.34,0,0,0-.7,1.79c-.67,0-1.33,0-2,0q-3.73,0-7.2.35ZM67.3,20.86q9.92,1.29,17.79,1.54v12a52,52,0,0,0-8.25,2.37,35.44,35.44,0,0,0-.92-3.57q-2.52-7.68-8.62-10Zm-32,70q0-15.75,6.37-26.51A48,48,0,0,1,56.42,48.2Q44.48,65.12,44.49,91.05a154.94,154.94,0,0,0,1.37,17.31q1.37,11.06,8.41,23Q35.29,116.49,35.29,90.85ZM120.49,138a85.3,85.3,0,0,1-20.69,5.93,21.14,21.14,0,0,0,1.45,4h0c2.27,4.53,4.88,7.39,7.79,8.58v2.31a91.68,91.68,0,0,0-17.86-1.54v-108a50.4,50.4,0,0,1,6.91-.44h0q-.27,5.13-.27,11.52v61.07c0,3.93.1,7.48.31,10.63.1,1.49.21,2.89.35,4.2,5.47-.77,9.53-2.69,12.21-5.76q1.75-3.23,1.76-11.93V105.42q0-14.17-10.38-16.33V87.33q3.63.19,10.08.59,5,.39,8.31.58Zm-1.17-87.26q-8.77-6-20.9-6.05H98.1a54.24,54.24,0,0,0-6.91.42,42,42,0,0,0-6.1,1.2A33,33,0,0,0,78.24,49Q60,58.78,60,90.36q0,34.35,17.77,43.25c.12-1.44.22-3,.31-4.6q.31-6.19.31-14.18V57.61c0-1.32,0-2.59,0-3.83a27.6,27.6,0,0,1,6.7-3.1V157.33a155.25,155.25,0,0,0-17.79,1.54v-2.31q6.21-2.53,8.67-11a.37.37,0,0,1,0-.09,36,36,0,0,0,.9-4.07,37.43,37.43,0,0,1-13.81-9.52,40.72,40.72,0,0,1-8.66-16,79.1,79.1,0,0,1-2.89-22.5q0-41.69,26-52.3a45.56,45.56,0,0,1,7.55-2.33,56.77,56.77,0,0,1,6.1-1,69.4,69.4,0,0,1,7.2-.36h1a98.17,98.17,0,0,1,32.39,5.76q0,9.11.29,14c.2,2.81.3,6.22.3,10.27h-2A26.61,26.61,0,0,0,119.32,50.74Zm25.34,38.35q-8.9,3.61-8.9,19.17v24.85a35.32,35.32,0,0,0-3.82,1.17,20.16,20.16,0,0,0-2.54.79c-.66.26-1.2.45-1.66.58V88.5q4.7-.19,8.61-.58c4.23-.4,7-.59,8.31-.59Z" transform="translate(0.02 0.13)"/>
</svg>
